<?xml version="1.0" encoding="UTF-8"?>
<!DOCTYPE svg PUBLIC "-//W3C//DTD SVG 1.1//EN" "http://www.w3.org/Graphics/SVG/1.1/DTD/svg11.dtd">
<svg xmlns="http://www.w3.org/2000/svg" version="1.1" width="395px" height="78px" style="shape-rendering:geometricPrecision; text-rendering:geometricPrecision; image-rendering:optimizeQuality; fill-rule:evenodd; clip-rule:evenodd" xmlns:xlink="http://www.w3.org/1999/xlink">
<g><path style="opacity:1" fill="#020202" d="M -0.5,-0.5 C 131.167,-0.5 262.833,-0.5 394.5,-0.5C 394.5,25.5 394.5,51.5 394.5,77.5C 262.833,77.5 131.167,77.5 -0.5,77.5C -0.5,51.5 -0.5,25.5 -0.5,-0.5 Z"/></g>
<g><path style="opacity:1" fill="#717171" d="M 6.5,7.5 C 133.332,6.50044 260.332,6.16711 387.5,6.5C 387.831,28.0065 387.497,49.3399 386.5,70.5C 386.5,49.5 386.5,28.5 386.5,7.5C 259.833,7.5 133.167,7.5 6.5,7.5 Z"/></g>
<g><path style="opacity:1" fill="#d4d4d4" d="M 6.5,7.5 C 133.167,7.5 259.833,7.5 386.5,7.5C 386.5,28.5 386.5,49.5 386.5,70.5C 259.833,70.5 133.167,70.5 6.5,70.5C 6.5,49.5 6.5,28.5 6.5,7.5 Z"/></g>
<g><path style="opacity:1" fill="#fbfbfb" d="M 7.5,8.5 C 133.5,8.5 259.5,8.5 385.5,8.5C 385.5,28.8333 385.5,49.1667 385.5,69.5C 259.5,69.5 133.5,69.5 7.5,69.5C 7.5,49.1667 7.5,28.8333 7.5,8.5 Z"/></g>
<g><path style="opacity:1" fill="#bbbbbb" d="M 86.5,21.5 C 82.1099,20.4027 77.7766,20.4027 73.5,21.5C 75.0478,20.2057 77.0478,19.5391 79.5,19.5C 81.5,19.6667 83.5,19.8333 85.5,20C 86.056,20.3826 86.3893,20.8826 86.5,21.5 Z"/></g>
<g><path style="opacity:1" fill="#b3b3b3" d="M 191.5,21.5 C 190.5,21.5 189.5,21.5 188.5,21.5C 185.638,20.3187 182.638,20.3187 179.5,21.5C 179.611,20.8826 179.944,20.3826 180.5,20C 182,19.8333 183.5,19.6667 185,19.5C 187.544,19.336 189.71,20.0027 191.5,21.5 Z"/></g>
<g><path style="opacity:1" fill="#c5c5c5" d="M 268.5,21.5 C 263.802,20.2216 259.135,20.2216 254.5,21.5C 256.223,20.1999 258.39,19.5332 261,19.5C 263.167,19.6667 265.333,19.8333 267.5,20C 268.056,20.3826 268.389,20.8826 268.5,21.5 Z"/></g>
<g><path style="opacity:1" fill="#bababa" d="M 352.5,21.5 C 348.141,20.3499 343.808,20.3499 339.5,21.5C 339.611,20.8826 339.944,20.3826 340.5,20C 344.167,19.3333 347.833,19.3333 351.5,20C 352.056,20.3826 352.389,20.8826 352.5,21.5 Z"/></g>
<g><path style="opacity:1" fill="#8a8a8a" d="M 27.5,21.5 C 24.9179,21.0254 22.9179,21.6921 21.5,23.5C 20.596,22.791 20.2627,21.791 20.5,20.5C 23.0593,20.1984 25.3926,20.5318 27.5,21.5 Z"/></g>
<g><path style="opacity:1" fill="#919191" d="M 51.5,23.5 C 49.643,21.1553 47.3096,20.822 44.5,22.5C 46.6353,20.631 49.3019,19.9644 52.5,20.5C 52.7373,21.791 52.404,22.791 51.5,23.5 Z"/></g>
<g><path style="opacity:1" fill="#858585" d="M 113.5,21.5 C 111.219,21.0773 109.552,21.744 108.5,23.5C 107.596,22.791 107.263,21.791 107.5,20.5C 109.735,20.2053 111.735,20.5386 113.5,21.5 Z"/></g>
<g><path style="opacity:1" fill="#8e8e8e" d="M 135.5,21.5 C 137.607,20.5318 139.941,20.1984 142.5,20.5C 142.737,21.791 142.404,22.791 141.5,23.5C 140.082,21.6921 138.082,21.0254 135.5,21.5 Z"/></g>
<g><path style="opacity:1" fill="#393939" d="M 188.5,21.5 C 183.85,21.4136 179.517,22.4136 175.5,24.5C 176.262,22.7376 177.596,21.7376 179.5,21.5C 182.638,20.3187 185.638,20.3187 188.5,21.5 Z"/></g>
<g><path style="opacity:1" fill="#111111" d="M 188.5,21.5 C 189.5,21.5 190.5,21.5 191.5,21.5C 191.833,21.5 192.167,21.5 192.5,21.5C 193.234,22.7079 193.567,24.0413 193.5,25.5C 193.179,27.0481 192.179,27.7148 190.5,27.5C 187.132,24.9544 183.799,24.9544 180.5,27.5C 178.887,30.5466 179.554,33.0466 182.5,35C 184.743,36.1362 187.076,36.9695 189.5,37.5C 189.973,38.9063 190.973,39.573 192.5,39.5C 196.315,42.1074 197.482,45.774 196,50.5C 193.305,55.406 189.138,57.7394 183.5,57.5C 179.706,57.6771 176.373,56.6771 173.5,54.5C 173.592,52.1523 174.592,50.4856 176.5,49.5C 176.611,50.1174 176.944,50.6174 177.5,51C 180.817,51.4983 184.15,51.665 187.5,51.5C 188.496,51.5858 189.329,51.2524 190,50.5C 190.789,48.2884 190.622,46.2884 189.5,44.5C 186.369,42.268 183.036,40.6013 179.5,39.5C 179.027,38.0937 178.027,37.427 176.5,37.5C 176.167,37.5 175.833,37.5 175.5,37.5C 174.167,33.1667 174.167,28.8333 175.5,24.5C 179.517,22.4136 183.85,21.4136 188.5,21.5 Z"/></g>
<g><path style="opacity:1" fill="#575757" d="M 308.5,23.5 C 307.609,22.8902 306.609,22.5569 305.5,22.5C 306.86,19.9845 307.86,20.3178 308.5,23.5 Z"/></g>
<g><path style="opacity:1" fill="#131313" d="M 27.5,21.5 C 30.2604,24.6827 32.2604,28.3494 33.5,32.5C 33.427,34.0269 34.0937,35.0269 35.5,35.5C 36.4959,35.5858 37.3292,35.2524 38,34.5C 39.9249,30.3133 42.0916,26.3133 44.5,22.5C 47.3096,20.822 49.643,21.1553 51.5,23.5C 49.7497,24.6594 48.7497,26.326 48.5,28.5C 46.2036,29.733 44.8702,31.733 44.5,34.5C 43.6618,34.8417 43.3284,35.5084 43.5,36.5C 41.684,38.1184 40.3507,40.1184 39.5,42.5C 38.5151,46.6344 38.1818,50.9677 38.5,55.5C 37.1667,55.5 35.8333,55.5 34.5,55.5C 34.8182,50.9677 34.4849,46.6344 33.5,42.5C 33.5,41.8333 33.1667,41.5 32.5,41.5C 29.2224,35.2312 25.5558,29.2312 21.5,23.5C 22.9179,21.6921 24.9179,21.0254 27.5,21.5 Z"/></g>
<g><path style="opacity:1" fill="#838383" d="M 87.5,21.5 C 89.0269,21.427 90.0269,22.0937 90.5,23.5C 88.9731,23.573 87.9731,22.9063 87.5,21.5 Z"/></g>
<g><path style="opacity:1" fill="#111111" d="M 113.5,21.5 C 116.419,27.0076 119.086,32.6742 121.5,38.5C 121.427,40.0269 122.094,41.0269 123.5,41.5C 123.5,41.8333 123.5,42.1667 123.5,42.5C 123.415,43.9953 124.081,44.9953 125.5,45.5C 126.897,42.9742 127.897,40.3076 128.5,37.5C 130.245,35.9674 131.245,33.9674 131.5,31.5C 132.387,27.9604 133.721,24.6271 135.5,21.5C 138.082,21.0254 140.082,21.6921 141.5,23.5C 140.662,23.8417 140.328,24.5084 140.5,25.5C 138.613,27.7886 137.279,30.4553 136.5,33.5C 136.5,33.8333 136.5,34.1667 136.5,34.5C 135.094,34.9731 134.427,35.9731 134.5,37.5C 134.5,38.1667 134.5,38.8333 134.5,39.5C 133.094,39.9731 132.427,40.9731 132.5,42.5C 131.89,43.391 131.557,44.391 131.5,45.5C 130.094,45.9731 129.427,46.9731 129.5,48.5C 128.559,50.0495 127.893,51.7162 127.5,53.5C 126.764,55.2294 125.43,56.2294 123.5,56.5C 122.008,52.1822 120.008,48.1822 117.5,44.5C 116.871,41.6027 115.871,38.936 114.5,36.5C 114.573,34.9731 113.906,33.9731 112.5,33.5C 112.443,32.391 112.11,31.391 111.5,30.5C 111.245,28.0326 110.245,26.0326 108.5,24.5C 108.5,24.1667 108.5,23.8333 108.5,23.5C 109.552,21.744 111.219,21.0773 113.5,21.5 Z"/></g>
<g><path style="opacity:1" fill="#636363" d="M 152.5,20.5 C 154.833,20.5 157.167,20.5 159.5,20.5C 159.5,32.8333 159.5,45.1667 159.5,57.5C 157.167,57.5 154.833,57.5 152.5,57.5C 152.5,45.1667 152.5,32.8333 152.5,20.5 Z"/></g>
<g><path style="opacity:1" fill="#0d0d0d" d="M 153.5,21.5 C 155.167,21.5 156.833,21.5 158.5,21.5C 158.5,33.1667 158.5,44.8333 158.5,56.5C 156.833,56.5 155.167,56.5 153.5,56.5C 153.5,44.8333 153.5,33.1667 153.5,21.5 Z"/></g>
<g><path style="opacity:1" fill="#090909" d="M 204.5,21.5 C 214.167,21.5 223.833,21.5 233.5,21.5C 233.5,23.1667 233.5,24.8333 233.5,26.5C 229.833,26.5 226.167,26.5 222.5,26.5C 221.506,35.9856 221.173,45.6522 221.5,55.5C 220.167,55.5 218.833,55.5 217.5,55.5C 217.827,45.985 217.494,36.6517 216.5,27.5C 212.702,26.5166 208.702,26.1832 204.5,26.5C 204.5,24.8333 204.5,23.1667 204.5,21.5 Z"/></g>
<g><path style="opacity:1" fill="#555555" d="M 374.5,21.5 C 372.833,21.5 371.167,21.5 369.5,21.5C 369.5,33.1667 369.5,44.8333 369.5,56.5C 368.505,44.6783 368.172,32.6783 368.5,20.5C 370.735,20.2053 372.735,20.5386 374.5,21.5 Z"/></g>
<g><path style="opacity:1" fill="#1d1d1d" d="M 374.5,21.5 C 375.495,32.988 375.828,44.6547 375.5,56.5C 373.5,56.5 371.5,56.5 369.5,56.5C 369.5,44.8333 369.5,33.1667 369.5,21.5C 371.167,21.5 372.833,21.5 374.5,21.5 Z"/></g>
<g><path style="opacity:1" fill="#606060" d="M 192.5,21.5 C 193.586,21.62 194.253,22.2867 194.5,23.5C 194.457,24.4164 194.124,25.0831 193.5,25.5C 193.567,24.0413 193.234,22.7079 192.5,21.5 Z"/></g>
<g><path style="opacity:1" fill="#111111" d="M 305.5,22.5 C 306.609,22.5569 307.609,22.8902 308.5,23.5C 308.755,25.9674 309.755,27.9674 311.5,29.5C 312.167,31.1667 312.833,32.8333 313.5,34.5C 313.755,36.9674 314.755,38.9674 316.5,40.5C 317.11,41.391 317.443,42.391 317.5,43.5C 317.755,45.9674 318.755,47.9674 320.5,49.5C 320.932,50.7095 321.599,51.7095 322.5,52.5C 322.5,53.8333 322.5,55.1667 322.5,56.5C 320.5,56.5 318.5,56.5 316.5,56.5C 316.741,54.1016 316.074,52.1016 314.5,50.5C 309.025,49.5111 303.358,49.1778 297.5,49.5C 297.371,51.2161 297.038,52.8828 296.5,54.5C 296.5,54.8333 296.5,55.1667 296.5,55.5C 293.69,57.178 291.357,56.8447 289.5,54.5C 291.552,51.3331 293.219,47.9998 294.5,44.5C 295.401,43.7095 296.068,42.7095 296.5,41.5C 297.833,38.1667 299.167,34.8333 300.5,31.5C 302.408,30.5144 303.408,28.8477 303.5,26.5C 303.66,24.847 304.326,23.5137 305.5,22.5 Z"/></g>
<g><path style="opacity:1" fill="#6a6a6a" d="M 352.5,21.5 C 353.586,21.62 354.253,22.2867 354.5,23.5C 354.457,24.4164 354.124,25.0831 353.5,25.5C 353.567,24.0413 353.234,22.7079 352.5,21.5 Z"/></g>
<g><path style="opacity:1" fill="#515151" d="M 254.5,21.5 C 251.192,24.4715 247.859,27.4715 244.5,30.5C 246.562,26.1053 249.896,23.1053 254.5,21.5 Z"/></g>
<g><path style="opacity:1" fill="#141414" d="M 86.5,21.5 C 86.8333,21.5 87.1667,21.5 87.5,21.5C 87.9731,22.9063 88.9731,23.573 90.5,23.5C 92.8061,25.1394 94.8061,27.1394 96.5,29.5C 98.7334,35.0406 99.0667,40.7073 97.5,46.5C 89.2002,58.6482 78.8668,60.6482 66.5,52.5C 64.6489,50.2241 62.9823,47.8907 61.5,45.5C 60.3376,41.0202 60.3376,36.6869 61.5,32.5C 62.9063,32.0269 63.573,31.0269 63.5,29.5C 65.6233,25.3821 68.9566,22.7154 73.5,21.5C 77.7766,20.4027 82.1099,20.4027 86.5,21.5 Z"/></g>
<g><path style="opacity:1" fill="#9f9f9f" d="M 83.5,26.5 C 83.5,26.8333 83.5,27.1667 83.5,27.5C 79.7657,27.3227 76.0991,27.6561 72.5,28.5C 75.6826,25.5796 79.3492,24.9129 83.5,26.5 Z"/></g>
<g><path style="opacity:1" fill="#6a6a6a" d="M 83.5,27.5 C 83.5,27.1667 83.5,26.8333 83.5,26.5C 85.3797,26.2291 86.713,26.8958 87.5,28.5C 86.1667,28.1667 84.8333,27.8333 83.5,27.5 Z"/></g>
<g><path style="opacity:1" fill="#a4a4a4" d="M 190.5,27.5 C 187.167,27.5 183.833,27.5 180.5,27.5C 183.799,24.9544 187.132,24.9544 190.5,27.5 Z"/></g>
<g><path style="opacity:1" fill="#f4f4f4" d="M 83.5,27.5 C 84.8333,27.8333 86.1667,28.1667 87.5,28.5C 92.1228,32.4318 93.6228,37.4318 92,43.5C 90.2845,46.7168 87.7845,49.0502 84.5,50.5C 79.8986,50.9449 75.5653,50.2783 71.5,48.5C 68.8403,46.1739 67.507,43.1739 67.5,39.5C 67.2339,34.8105 68.9006,31.1439 72.5,28.5C 76.0991,27.6561 79.7657,27.3227 83.5,27.5 Z"/></g>
<g><path style="opacity:1" fill="#929292" d="M 204.5,21.5 C 214.325,20.3417 224.325,20.1751 234.5,21C 235.833,23 235.833,25 234.5,27C 230.848,27.4986 227.182,27.6653 223.5,27.5C 223.827,37.3478 223.494,47.0144 222.5,56.5C 222.5,46.5 222.5,36.5 222.5,26.5C 226.167,26.5 229.833,26.5 233.5,26.5C 233.5,24.8333 233.5,23.1667 233.5,21.5C 223.833,21.5 214.167,21.5 204.5,21.5 Z"/></g>
<g><path style="opacity:1" fill="#666666" d="M 175.5,24.5 C 174.167,28.8333 174.167,33.1667 175.5,37.5C 173.555,35.6931 172.555,33.3598 172.5,30.5C 172.467,27.8984 173.467,25.8984 175.5,24.5 Z"/></g>
<g><path style="opacity:1" fill="#818181" d="M 308.5,23.5 C 310.245,25.0326 311.245,27.0326 311.5,29.5C 309.755,27.9674 308.755,25.9674 308.5,23.5 Z"/></g>
<g><path style="opacity:1" fill="#848484" d="M 108.5,24.5 C 110.245,26.0326 111.245,28.0326 111.5,30.5C 109.755,28.9674 108.755,26.9674 108.5,24.5 Z"/></g>
<g><path style="opacity:1" fill="#afafaf" d="M 204.5,26.5 C 208.702,26.1832 212.702,26.5166 216.5,27.5C 216.5,37.1667 216.5,46.8333 216.5,56.5C 215.506,47.0144 215.173,37.3478 215.5,27.5C 211.629,27.815 207.962,27.4816 204.5,26.5 Z"/></g>
<g><path style="opacity:1" fill="#121212" d="M 268.5,21.5 C 272.082,23.1198 275.082,25.4531 277.5,28.5C 277.427,30.0269 278.094,31.0269 279.5,31.5C 281.287,37.862 280.62,43.862 277.5,49.5C 274.681,52.075 271.681,54.4083 268.5,56.5C 267.833,56.5 267.167,56.5 266.5,56.5C 261.114,56.2226 255.781,55.5559 250.5,54.5C 250.167,53.5 249.5,52.8333 248.5,52.5C 247.833,51.1667 246.833,50.1667 245.5,49.5C 241.998,43.3183 241.664,36.9849 244.5,30.5C 247.859,27.4715 251.192,24.4715 254.5,21.5C 259.135,20.2216 263.802,20.2216 268.5,21.5 Z"/></g>
<g><path style="opacity:1" fill="#f7f7f7" d="M 272.5,32.5 C 273.344,36.0991 273.677,39.7657 273.5,43.5C 272.126,47.2013 269.46,49.5346 265.5,50.5C 261.227,50.919 257.227,50.2524 253.5,48.5C 252.5,48.1667 251.833,47.5 251.5,46.5C 250.167,41.5 250.167,36.5 251.5,31.5C 255.342,26.7541 260.342,25.2541 266.5,27C 268.996,28.331 270.996,30.1644 272.5,32.5 Z"/></g>
<g><path style="opacity:1" fill="#4e4e4e" d="M 335.5,24.5 C 334.676,27.7644 334.342,31.0977 334.5,34.5C 333.007,33.6879 332.34,32.3545 332.5,30.5C 332.467,27.8984 333.467,25.8984 335.5,24.5 Z"/></g>
<g><path style="opacity:1" fill="#858585" d="M 140.5,25.5 C 140.088,28.8025 138.755,31.4691 136.5,33.5C 137.279,30.4553 138.613,27.7886 140.5,25.5 Z"/></g>
<g><path style="opacity:1" fill="#272727" d="M 222.5,26.5 C 222.5,36.5 222.5,46.5 222.5,56.5C 220.5,56.5 218.5,56.5 216.5,56.5C 216.5,46.8333 216.5,37.1667 216.5,27.5C 217.494,36.6517 217.827,45.985 217.5,55.5C 218.833,55.5 220.167,55.5 221.5,55.5C 221.173,45.6522 221.506,35.9856 222.5,26.5 Z"/></g>
<g><path style="opacity:1" fill="#717171" d="M 277.5,28.5 C 278.906,28.9731 279.573,29.9731 279.5,31.5C 278.094,31.0269 277.427,30.0269 277.5,28.5 Z"/></g>
<g><path style="opacity:1" fill="#565656" d="M 303.5,26.5 C 303.408,28.8477 302.408,30.5144 300.5,31.5C 300.75,29.326 301.75,27.6594 303.5,26.5 Z"/></g>
<g><path style="opacity:1" fill="#747474" d="M 63.5,29.5 C 63.573,31.0269 62.9063,32.0269 61.5,32.5C 61.427,30.9731 62.0937,29.9731 63.5,29.5 Z"/></g>
<g><path style="opacity:1" fill="#9c9c9c" d="M 48.5,28.5 C 47.6992,30.9995 46.3658,32.9995 44.5,34.5C 44.8702,31.733 46.2036,29.733 48.5,28.5 Z"/></g>
<g><path style="opacity:1" fill="#626262" d="M 33.5,32.5 C 34.9063,32.9731 35.573,33.9731 35.5,35.5C 34.0937,35.0269 33.427,34.0269 33.5,32.5 Z"/></g>
<g><path style="opacity:1" fill="#9f9f9f" d="M 308.5,36.5 C 307.167,35.1667 305.833,35.1667 304.5,36.5C 305.833,32.5 307.167,32.5 308.5,36.5 Z"/></g>
<g><path style="opacity:1" fill="#b3b3b3" d="M 342.5,34.5 C 345.491,34.1663 347.824,35.1663 349.5,37.5C 346.843,37.0652 344.509,36.0652 342.5,34.5 Z"/></g>
<g><path style="opacity:1" fill="#727272" d="M 112.5,33.5 C 113.906,33.9731 114.573,34.9731 114.5,36.5C 113.094,36.0269 112.427,35.0269 112.5,33.5 Z"/></g>
<g><path style="opacity:1" fill="#606060" d="M 131.5,31.5 C 131.245,33.9674 130.245,35.9674 128.5,37.5C 128.755,35.0326 129.755,33.0326 131.5,31.5 Z"/></g>
<g><path style="opacity:1" fill="#676767" d="M 136.5,34.5 C 136.573,36.0269 135.906,37.0269 134.5,37.5C 134.427,35.9731 135.094,34.9731 136.5,34.5 Z"/></g>
<g><path style="opacity:1" fill="#ededed" d="M 308.5,36.5 C 308.5,36.8333 308.5,37.1667 308.5,37.5C 308.427,39.0269 309.094,40.0269 310.5,40.5C 310.5,41.8333 310.5,43.1667 310.5,44.5C 307.833,44.5 305.167,44.5 302.5,44.5C 302.963,41.779 303.629,39.1123 304.5,36.5C 305.833,35.1667 307.167,35.1667 308.5,36.5 Z"/></g>
<g><path style="opacity:1" fill="#8c8c8c" d="M 251.5,31.5 C 250.167,36.5 250.167,41.5 251.5,46.5C 250.883,46.3893 250.383,46.056 250,45.5C 249.342,43.2001 248.842,40.8668 248.5,38.5C 248.555,35.6402 249.555,33.3069 251.5,31.5 Z"/></g>
<g><path style="opacity:1" fill="#5a5a5a" d="M 176.5,37.5 C 178.027,37.427 179.027,38.0937 179.5,39.5C 177.973,39.573 176.973,38.9063 176.5,37.5 Z"/></g>
<g><path style="opacity:1" fill="#717171" d="M 189.5,37.5 C 191.027,37.427 192.027,38.0937 192.5,39.5C 190.973,39.573 189.973,38.9063 189.5,37.5 Z"/></g>
<g><path style="opacity:1" fill="#797979" d="M 349.5,37.5 C 351.027,37.427 352.027,38.0937 352.5,39.5C 350.973,39.573 349.973,38.9063 349.5,37.5 Z"/></g>
<g><path style="opacity:1" fill="#696969" d="M 308.5,37.5 C 309.906,37.9731 310.573,38.9731 310.5,40.5C 309.094,40.0269 308.427,39.0269 308.5,37.5 Z"/></g>
<g><path style="opacity:1" fill="#6a6a6a" d="M 313.5,34.5 C 315.245,36.0326 316.245,38.0326 316.5,40.5C 314.755,38.9674 313.755,36.9674 313.5,34.5 Z"/></g>
<g><path style="opacity:1" fill="#909090" d="M 352.5,39.5 C 354.5,39.5 355.5,40.5 355.5,42.5C 354.167,41.8333 353.167,40.8333 352.5,39.5 Z"/></g>
<g><path style="opacity:1" fill="#8e8e8e" d="M 121.5,38.5 C 122.906,38.9731 123.573,39.9731 123.5,41.5C 122.094,41.0269 121.427,40.0269 121.5,38.5 Z"/></g>
<g><path style="opacity:1" fill="#8c8c8c" d="M 96.5,29.5 C 97.7899,30.0577 98.6232,31.0577 99,32.5C 99.1667,34.3333 99.3333,36.1667 99.5,38C 99.6397,41.1498 98.973,43.9831 97.5,46.5C 99.0667,40.7073 98.7334,35.0406 96.5,29.5 Z"/></g>
<g><path style="opacity:1" fill="#909090" d="M 134.5,39.5 C 134.573,41.0269 133.906,42.0269 132.5,42.5C 132.427,40.9731 133.094,39.9731 134.5,39.5 Z"/></g>
<g><path style="opacity:1" fill="#535353" d="M 272.5,32.5 C 273.117,32.6107 273.617,32.944 274,33.5C 274.808,37.0267 274.641,40.3601 273.5,43.5C 273.677,39.7657 273.344,36.0991 272.5,32.5 Z"/></g>
<g><path style="opacity:1" fill="#161616" d="M 352.5,21.5 C 353.234,22.7079 353.567,24.0413 353.5,25.5C 352.817,27.1765 351.483,27.8432 349.5,27.5C 346.5,24.8333 343.5,24.8333 340.5,27.5C 338.839,30.5233 339.505,32.8567 342.5,34.5C 344.509,36.0652 346.843,37.0652 349.5,37.5C 349.973,38.9063 350.973,39.573 352.5,39.5C 353.167,40.8333 354.167,41.8333 355.5,42.5C 356.338,42.8417 356.672,43.5084 356.5,44.5C 357.089,49.327 355.423,52.9937 351.5,55.5C 345.25,58.4538 339.083,58.1205 333,54.5C 332.235,52.9343 332.402,51.6009 333.5,50.5C 338.653,51.6186 343.653,51.6186 348.5,50.5C 350.192,47.1309 349.526,44.2976 346.5,42C 340.968,41.7444 336.968,39.2444 334.5,34.5C 334.342,31.0977 334.676,27.7644 335.5,24.5C 336.262,22.7376 337.596,21.7376 339.5,21.5C 343.808,20.3499 348.141,20.3499 352.5,21.5 Z"/></g>
<g><path style="opacity:1" fill="#a7a7a7" d="M 349.5,27.5 C 346.5,27.5 343.5,27.5 340.5,27.5C 343.5,24.8333 346.5,24.8333 349.5,27.5 Z"/></g>
<g><path style="opacity:1" fill="#707070" d="M 128.5,37.5 C 127.897,40.3076 126.897,42.9742 125.5,45.5C 124.081,44.9953 123.415,43.9953 123.5,42.5C 124.117,42.6107 124.617,42.944 125,43.5C 125.716,41.1209 126.883,39.1209 128.5,37.5 Z"/></g>
<g><path style="opacity:1" fill="#9e9e9e" d="M 296.5,41.5 C 296.068,42.7095 295.401,43.7095 294.5,44.5C 294.285,42.8212 294.952,41.8212 296.5,41.5 Z"/></g>
<g><path style="opacity:1" fill="#5c5c5c" d="M 304.5,36.5 C 303.629,39.1123 302.963,41.779 302.5,44.5C 305.167,44.5 307.833,44.5 310.5,44.5C 310.5,43.1667 310.5,41.8333 310.5,40.5C 311.451,41.9187 311.784,43.5853 311.5,45.5C 308.167,45.5 304.833,45.5 301.5,45.5C 301.138,41.919 302.138,38.919 304.5,36.5 Z"/></g>
<g><path style="opacity:1" fill="#777777" d="M 131.5,45.5 C 131.573,47.0269 130.906,48.0269 129.5,48.5C 129.427,46.9731 130.094,45.9731 131.5,45.5 Z"/></g>
<g><path style="opacity:1" fill="#585858" d="M 317.5,43.5 C 319.245,45.0326 320.245,47.0326 320.5,49.5C 318.755,47.9674 317.755,45.9674 317.5,43.5 Z"/></g>
<g><path style="opacity:1" fill="#a7a7a7" d="M 61.5,45.5 C 62.9823,47.8907 64.6489,50.2241 66.5,52.5C 63.2314,51.4403 61.5647,49.1069 61.5,45.5 Z"/></g>
<g><path style="opacity:1" fill="#a3a3a3" d="M 314.5,50.5 C 309.167,50.5 303.833,50.5 298.5,50.5C 298.771,52.3797 298.104,53.713 296.5,54.5C 297.038,52.8828 297.371,51.2161 297.5,49.5C 303.358,49.1778 309.025,49.5111 314.5,50.5 Z"/></g>
<g><path style="opacity:1" fill="#9d9d9d" d="M 71.5,48.5 C 75.5653,50.2783 79.8986,50.9449 84.5,50.5C 81.0915,52.9598 77.4248,53.1265 73.5,51C 72.6195,50.2917 71.9528,49.4584 71.5,48.5 Z"/></g>
<g><path style="opacity:1" fill="#929292" d="M 176.5,49.5 C 180.099,50.3439 183.766,50.6773 187.5,50.5C 187.5,50.8333 187.5,51.1667 187.5,51.5C 184.15,51.665 180.817,51.4983 177.5,51C 176.944,50.6174 176.611,50.1174 176.5,49.5 Z"/></g>
<g><path style="opacity:1" fill="#525252" d="M 189.5,44.5 C 190.622,46.2884 190.789,48.2884 190,50.5C 189.329,51.2524 188.496,51.5858 187.5,51.5C 187.5,51.1667 187.5,50.8333 187.5,50.5C 189.28,49.0101 189.946,47.0101 189.5,44.5 Z"/></g>
<g><path style="opacity:1" fill="#a0a0a0" d="M 245.5,49.5 C 246.833,50.1667 247.833,51.1667 248.5,52.5C 246.5,52.5 245.5,51.5 245.5,49.5 Z"/></g>
<g><path style="opacity:1" fill="#b5b5b5" d="M 253.5,48.5 C 257.227,50.2524 261.227,50.919 265.5,50.5C 262.36,51.6408 259.027,51.8075 255.5,51C 254.619,50.2917 253.953,49.4584 253.5,48.5 Z"/></g>
<g><path style="opacity:1" fill="#6e6e6e" d="M 348.5,50.5 C 343.653,51.6186 338.653,51.6186 333.5,50.5C 333.369,49.6236 333.702,48.9569 334.5,48.5C 338.997,50.2171 343.663,50.8838 348.5,50.5 Z"/></g>
<g><path style="opacity:1" fill="#c9c9c9" d="M 356.5,44.5 C 358.021,48.2775 357.355,51.7775 354.5,55C 353.552,55.4828 352.552,55.6495 351.5,55.5C 355.423,52.9937 357.089,49.327 356.5,44.5 Z"/></g>
<g><path style="opacity:1" fill="#535353" d="M 176.5,49.5 C 174.592,50.4856 173.592,52.1523 173.5,54.5C 172.709,52.6907 172.709,50.6907 173.5,48.5C 174.791,48.2627 175.791,48.596 176.5,49.5 Z"/></g>
<g><path style="opacity:1" fill="#a8a8a8" d="M 277.5,49.5 C 275.929,53.4752 272.929,55.8086 268.5,56.5C 271.681,54.4083 274.681,52.075 277.5,49.5 Z"/></g>
<g><path style="opacity:1" fill="#959595" d="M 117.5,44.5 C 120.008,48.1822 122.008,52.1822 123.5,56.5C 122.168,54.8679 120.835,53.2012 119.5,51.5C 118.579,49.2235 117.913,46.8901 117.5,44.5 Z"/></g>
<g><path style="opacity:1" fill="#7c7c7c" d="M 127.5,53.5 C 127.663,57.0348 126.33,58.0348 123.5,56.5C 125.43,56.2294 126.764,55.2294 127.5,53.5 Z"/></g>
<g><path style="opacity:1" fill="#4d4d4d" d="M 250.5,54.5 C 255.781,55.5559 261.114,56.2226 266.5,56.5C 263.024,57.6433 259.358,57.8099 255.5,57C 253.509,56.6264 251.842,55.793 250.5,54.5 Z"/></g>
<g><path style="opacity:1" fill="#a9a9a9" d="M 289.5,54.5 C 291.357,56.8447 293.69,57.178 296.5,55.5C 294.365,57.369 291.698,58.0356 288.5,57.5C 288.263,56.209 288.596,55.209 289.5,54.5 Z"/></g>
<g><path style="opacity:1" fill="#959595" d="M 322.5,52.5 C 323.451,53.9187 323.784,55.5853 323.5,57.5C 320.941,57.8016 318.607,57.4682 316.5,56.5C 318.5,56.5 320.5,56.5 322.5,56.5C 322.5,55.1667 322.5,53.8333 322.5,52.5 Z"/></g>
<g><path style="opacity:1" fill="#c3c3c3" d="M 43.5,36.5 C 42.3775,38.5184 42.3775,40.5184 43.5,42.5C 42.4688,43.7003 41.6355,45.0337 41,46.5C 40.5012,50.4862 40.3345,54.4862 40.5,58.5C 37.8333,58.5 35.1667,58.5 32.5,58.5C 32.5,52.8333 32.5,47.1667 32.5,41.5C 33.1667,41.5 33.5,41.8333 33.5,42.5C 33.5,47.1667 33.5,51.8333 33.5,56.5C 35.5,56.5 37.5,56.5 39.5,56.5C 39.5,51.8333 39.5,47.1667 39.5,42.5C 40.3507,40.1184 41.684,38.1184 43.5,36.5 Z"/></g>
<g><path style="opacity:1" fill="#343434" d="M 33.5,42.5 C 34.4849,46.6344 34.8182,50.9677 34.5,55.5C 35.8333,55.5 37.1667,55.5 38.5,55.5C 38.1818,50.9677 38.5151,46.6344 39.5,42.5C 39.5,47.1667 39.5,51.8333 39.5,56.5C 37.5,56.5 35.5,56.5 33.5,56.5C 33.5,51.8333 33.5,47.1667 33.5,42.5 Z"/></g>
<g><path style="opacity:1" fill="#717171" d="M 6.5,7.5 C 6.5,28.5 6.5,49.5 6.5,70.5C 133.167,70.5 259.833,70.5 386.5,70.5C 259.668,71.4996 132.668,71.8329 5.5,71.5C 5.16936,49.9935 5.5027,28.6601 6.5,7.5 Z"/></g>
</svg>
